<svg xmlns="http://www.w3.org/2000/svg" xmlns:xlink="http://www.w3.org/1999/xlink" width="919" height="393" viewBox="0 0 919 393">
  <defs>
    <clipPath id="clip-path">
      <rect id="Rectangle_1" data-name="Rectangle 1" width="594" height="277" transform="translate(357 59)" fill="#fff" stroke="#707070" stroke-width="1"/>
    </clipPath>
  </defs>
  <g id="Group_11" data-name="Group 11" transform="translate(-357 57)">
    <g id="Mask_Group_1" data-name="Mask Group 1" clip-path="url(#clip-path)">
      <g id="Software_code_testing-pana" data-name="Software code testing-pana" transform="translate(418.59 38.361)">
        <g id="freepik--Floor--inject-76">
          <path id="Path_1" data-name="Path 1" d="M451.48,297.467c0,.1-96.747.171-216.057.171s-216.083-.044-216.083-.171,96.728-.165,216.083-.165S451.48,297.379,451.48,297.467Z" fill="#263238"/>
        </g>
        <g id="freepik--OK--inject-76">
          <rect id="Rectangle_2" data-name="Rectangle 2" width="35.743" height="35.743" rx="6.263" transform="translate(397.355 150.618)" fill="#263238"/>
          <rect id="Rectangle_3" data-name="Rectangle 3" width="35.743" height="35.743" rx="6.263" transform="translate(392.114 150.618)" fill="#455a64"/>
          <path id="Path_2" data-name="Path 2" d="M399.049,168.277l3.4-3.4,6.555,5.831,10.952-11,3.16,3.4-14.594,14.15Z" fill="#fff"/>
        </g>
        <g id="freepik--Plant--inject-76">
          <path id="Path_3" data-name="Path 3" d="M410.261,258.755a7.164,7.164,0,0,1,3.7,4.188,12.614,12.614,0,0,1,.489,5.673c-.419,3.68-2.506,7.4-4.759,10.343-3.1-2.709-3.807-7.424-4.029-9.842-.33-3.807,1.383-10.927,4.6-10.362" fill="#ff725e"/>
          <path id="Path_4" data-name="Path 4" d="M413.288,285.031a6.1,6.1,0,0,1,1.967-5.787,8.091,8.091,0,0,1,5.965-1.859,3.4,3.4,0,0,1,2.646,1.174,2.6,2.6,0,0,1,.038,2.64,5.293,5.293,0,0,1-1.948,1.9c-2.69,1.682-5.6,2.824-8.636,1.9" fill="#ff725e"/>
          <path id="Path_5" data-name="Path 5" d="M409.316,296.325a4.514,4.514,0,0,1,.108-.755c.1-.533.228-1.218.374-2.043a21.435,21.435,0,0,1,2.113-6.536,13,13,0,0,1,4.689-4.975,8.846,8.846,0,0,1,1.9-.85c.235-.076.425-.108.546-.14a.635.635,0,0,1,.2,0,14.041,14.041,0,0,0-2.538,1.174,13.522,13.522,0,0,0-4.55,4.949A22.962,22.962,0,0,0,410,293.59c-.19.857-.343,1.548-.457,2.024A4.18,4.18,0,0,1,409.316,296.325Z" fill="#263238"/>
          <path id="Path_6" data-name="Path 6" d="M409.43,264.288a1.047,1.047,0,0,1,.038.33c0,.241.038.558.057.945.044.825.1,2.018.14,3.49.1,2.951.171,7.031.152,11.529s-.127,8.585-.247,11.529c-.063,1.478-.121,2.671-.171,3.49,0,.393-.051.7-.063.952a1.268,1.268,0,0,1-.044.33,1.9,1.9,0,0,1,0-.33V295.6c0-.857.051-2.043.089-3.5.07-2.944.152-7.018.171-11.523s0-8.573-.076-11.523c0-1.447-.038-2.633-.051-3.49v-.952A1.907,1.907,0,0,1,409.43,264.288Z" fill="#263238"/>
          <path id="Path_7" data-name="Path 7" d="M407.926,287.271a14.226,14.226,0,0,0-7.773-10.425c-1.034-.495-2.386-.825-3.236-.051s-.635,2.157-.247,3.23a12.164,12.164,0,0,0,11.187,7.551" fill="#ff725e"/>
          <path id="Path_8" data-name="Path 8" d="M400.655,280.335a3.628,3.628,0,0,1,.635.286,6.944,6.944,0,0,1,.742.4,10.962,10.962,0,0,1,.945.59,12.167,12.167,0,0,1,1.085.819,13.105,13.105,0,0,1,1.148,1.041,14.715,14.715,0,0,1,3.636,6.079,13.964,13.964,0,0,1,.362,1.51,10.148,10.148,0,0,1,.184,1.345c.057.412.038.787.057,1.117a6.687,6.687,0,0,1,0,.838,3.937,3.937,0,0,1-.082.717c-.063,0,.044-1.028-.133-2.652-.057-.406-.108-.85-.216-1.32a13.959,13.959,0,0,0-.387-1.485,15.905,15.905,0,0,0-1.434-3.173,16.2,16.2,0,0,0-2.138-2.779,14.114,14.114,0,0,0-1.117-1.053,12.068,12.068,0,0,0-1.047-.825C401.562,280.811,400.629,280.386,400.655,280.335Z" fill="#263238"/>
        </g>
        <g id="freepik--Server--inject-76">
          <rect id="Rectangle_4" data-name="Rectangle 4" width="66.334" height="159.077" transform="translate(61.016 138.435)" fill="#e0e0e0"/>
          <rect id="Rectangle_5" data-name="Rectangle 5" width="52.444" height="159.077" transform="translate(41.739 138.435)" fill="#f5f5f5"/>
          <path id="Path_9" data-name="Path 9" d="M94.259,297.391c-.089,0-.165-35.622-.165-79.564s.076-79.57.165-79.57.165,35.622.165,79.57S94.355,297.391,94.259,297.391Z" fill="#263238"/>
          <rect id="Rectangle_6" data-name="Rectangle 6" width="15.889" height="1.637" transform="translate(103.752 156.71)" fill="#263238"/>
          <rect id="Rectangle_7" data-name="Rectangle 7" width="15.889" height="1.637" transform="translate(103.752 161.393)" fill="#263238"/>
          <rect id="Rectangle_8" data-name="Rectangle 8" width="15.889" height="1.637" transform="translate(103.752 166.082)" fill="#263238"/>
          <rect id="Rectangle_9" data-name="Rectangle 9" width="41.955" height="147.262" transform="translate(47.158 145.199)" fill="#e0e0e0"/>
          <rect id="Rectangle_10" data-name="Rectangle 10" width="34.76" height="5.267" transform="translate(50.172 150.625)" fill="#ebebeb"/>
          <rect id="Rectangle_11" data-name="Rectangle 11" width="5.267" height="5.267" transform="translate(50.172 150.625)" fill="#ff725e"/>
          <rect id="Rectangle_12" data-name="Rectangle 12" width="11.447" height="5.267" transform="translate(74.564 150.625)" fill="#f5f5f5"/>
          <rect id="Rectangle_13" data-name="Rectangle 13" width="34.76" height="5.267" transform="translate(50.172 159.997)" fill="#ebebeb"/>
          <rect id="Rectangle_14" data-name="Rectangle 14" width="5.267" height="5.267" transform="translate(50.172 159.997)" fill="#fff"/>
          <rect id="Rectangle_15" data-name="Rectangle 15" width="11.447" height="5.267" transform="translate(74.564 159.997)" fill="#f5f5f5"/>
          <rect id="Rectangle_16" data-name="Rectangle 16" width="34.76" height="5.267" transform="translate(50.172 169.375)" fill="#ebebeb"/>
          <rect id="Rectangle_17" data-name="Rectangle 17" width="5.267" height="5.267" transform="translate(50.172 169.375)" fill="#ff725e"/>
          <rect id="Rectangle_18" data-name="Rectangle 18" width="11.447" height="5.267" transform="translate(74.564 169.375)" fill="#f5f5f5"/>
          <rect id="Rectangle_19" data-name="Rectangle 19" width="34.76" height="5.267" transform="translate(50.172 178.753)" fill="#ebebeb"/>
          <rect id="Rectangle_20" data-name="Rectangle 20" width="5.267" height="5.267" transform="translate(50.172 178.753)" fill="#fff"/>
          <rect id="Rectangle_21" data-name="Rectangle 21" width="11.447" height="5.267" transform="translate(74.564 178.753)" fill="#f5f5f5"/>
          <rect id="Rectangle_22" data-name="Rectangle 22" width="34.76" height="5.267" transform="translate(50.172 188.125)" fill="#ebebeb"/>
          <rect id="Rectangle_23" data-name="Rectangle 23" width="5.267" height="5.267" transform="translate(50.172 188.125)" fill="#ff725e"/>
          <rect id="Rectangle_24" data-name="Rectangle 24" width="11.447" height="5.267" transform="translate(74.564 188.125)" fill="#f5f5f5"/>
          <rect id="Rectangle_25" data-name="Rectangle 25" width="34.76" height="5.267" transform="translate(50.172 197.504)" fill="#ebebeb"/>
          <rect id="Rectangle_26" data-name="Rectangle 26" width="5.267" height="5.267" transform="translate(50.172 197.504)" fill="#ff725e"/>
          <rect id="Rectangle_27" data-name="Rectangle 27" width="11.447" height="5.267" transform="translate(74.564 197.504)" fill="#f5f5f5"/>
          <rect id="Rectangle_28" data-name="Rectangle 28" width="34.76" height="5.267" transform="translate(50.172 206.882)" fill="#ebebeb"/>
          <rect id="Rectangle_29" data-name="Rectangle 29" width="5.267" height="5.267" transform="translate(50.172 206.882)" fill="#fff"/>
          <rect id="Rectangle_30" data-name="Rectangle 30" width="11.447" height="5.267" transform="translate(74.564 206.882)" fill="#f5f5f5"/>
          <rect id="Rectangle_31" data-name="Rectangle 31" width="34.76" height="5.267" transform="translate(50.172 216.254)" fill="#ebebeb"/>
          <rect id="Rectangle_32" data-name="Rectangle 32" width="5.267" height="5.267" transform="translate(50.172 216.254)" fill="#fff"/>
          <rect id="Rectangle_33" data-name="Rectangle 33" width="11.447" height="5.267" transform="translate(74.564 216.254)" fill="#f5f5f5"/>
          <rect id="Rectangle_34" data-name="Rectangle 34" width="34.76" height="5.267" transform="translate(50.172 225.632)" fill="#ebebeb"/>
          <rect id="Rectangle_35" data-name="Rectangle 35" width="5.267" height="5.267" transform="translate(50.172 225.632)" fill="#fff"/>
          <rect id="Rectangle_36" data-name="Rectangle 36" width="11.447" height="5.267" transform="translate(74.564 225.632)" fill="#f5f5f5"/>
          <rect id="Rectangle_37" data-name="Rectangle 37" width="34.76" height="5.267" transform="translate(50.172 235.011)" fill="#ebebeb"/>
          <rect id="Rectangle_38" data-name="Rectangle 38" width="5.267" height="5.267" transform="translate(50.172 235.011)" fill="#ff725e"/>
          <rect id="Rectangle_39" data-name="Rectangle 39" width="11.447" height="5.267" transform="translate(74.564 235.011)" fill="#f5f5f5"/>
          <rect id="Rectangle_40" data-name="Rectangle 40" width="34.76" height="5.267" transform="translate(50.172 244.389)" fill="#ebebeb"/>
          <rect id="Rectangle_41" data-name="Rectangle 41" width="5.267" height="5.267" transform="translate(50.172 244.389)" fill="#fff"/>
          <rect id="Rectangle_42" data-name="Rectangle 42" width="11.447" height="5.267" transform="translate(74.564 244.389)" fill="#f5f5f5"/>
          <rect id="Rectangle_43" data-name="Rectangle 43" width="34.76" height="5.267" transform="translate(50.172 253.761)" fill="#ebebeb"/>
          <rect id="Rectangle_44" data-name="Rectangle 44" width="5.267" height="5.267" transform="translate(50.172 253.761)" fill="#ff725e"/>
          <rect id="Rectangle_45" data-name="Rectangle 45" width="11.447" height="5.267" transform="translate(74.564 253.761)" fill="#f5f5f5"/>
          <rect id="Rectangle_46" data-name="Rectangle 46" width="34.76" height="5.267" transform="translate(50.172 263.139)" fill="#ebebeb"/>
          <rect id="Rectangle_47" data-name="Rectangle 47" width="5.267" height="5.267" transform="translate(50.172 263.139)" fill="#fff"/>
          <rect id="Rectangle_48" data-name="Rectangle 48" width="11.447" height="5.267" transform="translate(74.564 263.139)" fill="#f5f5f5"/>
          <rect id="Rectangle_49" data-name="Rectangle 49" width="34.76" height="5.267" transform="translate(50.172 272.518)" fill="#ebebeb"/>
          <rect id="Rectangle_50" data-name="Rectangle 50" width="5.267" height="5.267" transform="translate(50.172 272.518)" fill="#ff725e"/>
          <rect id="Rectangle_51" data-name="Rectangle 51" width="11.447" height="5.267" transform="translate(74.564 272.518)" fill="#f5f5f5"/>
          <rect id="Rectangle_52" data-name="Rectangle 52" width="34.76" height="5.267" transform="translate(50.172 281.89)" fill="#ebebeb"/>
          <rect id="Rectangle_53" data-name="Rectangle 53" width="5.267" height="5.267" transform="translate(50.172 281.89)" fill="#fff"/>
          <rect id="Rectangle_54" data-name="Rectangle 54" width="11.447" height="5.267" transform="translate(74.564 281.89)" fill="#f5f5f5"/>
          <path id="Path_10" data-name="Path 10" d="M127.35,297.512c0-1.415-.063-66.055-.152-159.077l.152.152h-85.6l.165-.165c0,61.067-.032,116.906-.038,159.077l-.127-.127,85.611.127-85.611.121h-.127v-.127c0-42.171,0-98.009-.038-159.077v-.165h85.928v.152c0,46.549-.051,86.334-.07,114.488C127.382,280.976,127.35,296.808,127.35,297.512Z" fill="#263238"/>
        </g>
        <g id="freepik--Character--inject-76">
          <path id="Path_11" data-name="Path 11" d="M352.113,93.6H123.784a7.126,7.126,0,0,0-7.126,7.126V262a7.126,7.126,0,0,0,7.126,7.126h87.635L207.168,297.3H270.7l-3.566-28.173h84.976A7.126,7.126,0,0,0,359.239,262V100.725a7.126,7.126,0,0,0-7.126-7.126Z" fill="#455a64"/>
          <path id="Path_12" data-name="Path 12" d="M240.994,252.168c3.109,4.442-1.751,9.3-6.193,6.193a1.548,1.548,0,0,1-.381-.381c-3.1-4.442,1.758-9.3,6.193-6.193A1.548,1.548,0,0,1,240.994,252.168Z" fill="#263238"/>
          <path id="Path_13" data-name="Path 13" d="M129.2,99.754H346.732a6.155,6.155,0,0,1,6.155,6.155V239.624H123.042V105.909a6.155,6.155,0,0,1,6.155-6.155Z" fill="#263238"/>
          <path id="Path_14" data-name="Path 14" d="M290.716,269.129c0,.082-19.144.146-42.748.146s-42.748-.063-42.748-.146,19.137-.14,42.748-.14S290.716,269.041,290.716,269.129Z" fill="#263238"/>
          <rect id="Rectangle_55" data-name="Rectangle 55" width="16.752" height="3.534" transform="translate(146.126 110.802)" fill="#455a64"/>
          <rect id="Rectangle_56" data-name="Rectangle 56" width="8.376" height="3.534" transform="translate(146.126 126.639)" fill="#ff725e"/>
          <rect id="Rectangle_57" data-name="Rectangle 57" width="11.796" height="3.534" transform="translate(152.433 134.603)" fill="#455a64"/>
          <rect id="Rectangle_58" data-name="Rectangle 58" width="6.872" height="3.534" transform="translate(166.101 134.603)" fill="#455a64"/>
          <rect id="Rectangle_59" data-name="Rectangle 59" width="14.137" height="3.534" transform="translate(220.461 134.603)" fill="#455a64"/>
          <rect id="Rectangle_60" data-name="Rectangle 60" width="23.877" height="3.534" transform="translate(252.029 142.363)" fill="#455a64"/>
          <rect id="Rectangle_61" data-name="Rectangle 61" width="11.466" height="3.534" transform="translate(301.275 134.603)" fill="#455a64"/>
          <rect id="Rectangle_62" data-name="Rectangle 62" width="23.059" height="3.534" transform="translate(316.256 134.603)" fill="#455a64"/>
          <rect id="Rectangle_63" data-name="Rectangle 63" width="11.796" height="3.534" transform="translate(152.433 142.363)" fill="#455a64"/>
          <rect id="Rectangle_64" data-name="Rectangle 64" width="11.796" height="3.534" transform="translate(145.18 150.104)" fill="#ff725e"/>
          <rect id="Rectangle_65" data-name="Rectangle 65" width="5.514" height="3.534" transform="translate(151.469 157.852)" fill="#455a64"/>
          <rect id="Rectangle_66" data-name="Rectangle 66" width="5.508" height="3.534" transform="translate(171.697 174.159)" fill="#455a64"/>
          <rect id="Rectangle_67" data-name="Rectangle 67" width="10.768" height="3.534" transform="translate(247.505 203.627)" fill="#455a64"/>
          <rect id="Rectangle_68" data-name="Rectangle 68" width="26.377" height="3.534" transform="translate(292.049 203.627)" fill="#455a64"/>
          <rect id="Rectangle_69" data-name="Rectangle 69" width="10.768" height="3.534" transform="translate(206.965 195.892)" fill="#e0e0e0"/>
          <rect id="Rectangle_70" data-name="Rectangle 70" width="10.768" height="3.534" transform="translate(167.954 189.255)" fill="#455a64"/>
          <rect id="Rectangle_71" data-name="Rectangle 71" width="16.98" height="3.534" transform="translate(228.291 203.627)" fill="#455a64"/>
          <rect id="Rectangle_72" data-name="Rectangle 72" width="8.941" height="3.534" transform="translate(151.469 165.733)" fill="#455a64"/>
          <rect id="Rectangle_73" data-name="Rectangle 73" width="16.587" height="3.534" transform="translate(151.469 174.293)" fill="#455a64"/>
          <rect id="Rectangle_74" data-name="Rectangle 74" width="24.271" height="3.534" transform="translate(151.469 180.841)" fill="#455a64"/>
          <rect id="Rectangle_75" data-name="Rectangle 75" width="24.271" height="3.534" transform="translate(195.441 180.841)" fill="#455a64"/>
          <rect id="Rectangle_76" data-name="Rectangle 76" width="34.081" height="3.534" transform="translate(167.738 195.892)" fill="#455a64"/>
          <rect id="Rectangle_77" data-name="Rectangle 77" width="57.641" height="3.534" transform="translate(167.738 203.627)" fill="#455a64"/>
          <rect id="Rectangle_78" data-name="Rectangle 78" width="57.641" height="3.534" transform="translate(150.301 211.368)" fill="#455a64"/>
          <rect id="Rectangle_79" data-name="Rectangle 79" width="14.562" height="3.534" transform="translate(178.303 180.841)" fill="#455a64"/>
          <rect id="Rectangle_80" data-name="Rectangle 80" width="15.026" height="3.534" transform="translate(159.153 157.852)" fill="#455a64"/>
          <rect id="Rectangle_81" data-name="Rectangle 81" width="15.026" height="3.534" transform="translate(162.465 165.739)" fill="#455a64"/>
          <rect id="Rectangle_82" data-name="Rectangle 82" width="39.785" height="3.534" transform="translate(195.917 165.739)" fill="#455a64"/>
          <rect id="Rectangle_83" data-name="Rectangle 83" width="45.946" height="3.534" transform="translate(236.781 165.739)" fill="#455a64"/>
          <rect id="Rectangle_84" data-name="Rectangle 84" width="12.437" height="3.534" transform="translate(179.959 165.739)" fill="#455a64"/>
          <rect id="Rectangle_85" data-name="Rectangle 85" width="19.696" height="3.534" transform="translate(176.234 157.852)" fill="#455a64"/>
          <rect id="Rectangle_86" data-name="Rectangle 86" width="10.965" height="3.534" transform="translate(198.106 157.852)" fill="#e0e0e0"/>
          <rect id="Rectangle_87" data-name="Rectangle 87" width="12.297" height="3.534" transform="translate(166.101 142.363)" fill="#455a64"/>
          <rect id="Rectangle_88" data-name="Rectangle 88" width="60.718" height="3.534" transform="translate(186.755 142.363)" fill="#455a64"/>
          <rect id="Rectangle_89" data-name="Rectangle 89" width="28.706" height="3.534" transform="translate(286.922 165.739)" fill="#455a64"/>
          <rect id="Rectangle_90" data-name="Rectangle 90" width="28.712" height="3.534" transform="translate(261.071 203.627)" fill="#455a64"/>
          <rect id="Rectangle_91" data-name="Rectangle 91" width="59.811" height="3.534" transform="translate(236.997 134.603)" fill="#455a64"/>
          <rect id="Rectangle_92" data-name="Rectangle 92" width="41.619" height="3.534" transform="translate(175.124 134.603)" fill="#455a64"/>
          <rect id="Rectangle_93" data-name="Rectangle 93" width="28.021" height="3.534" transform="translate(146.126 118.302)" fill="#455a64"/>
          <rect id="Rectangle_94" data-name="Rectangle 94" width="38.37" height="3.534" transform="translate(176.945 118.302)" fill="#455a64"/>
          <rect id="Rectangle_95" data-name="Rectangle 95" width="12.335" height="3.534" transform="translate(165.498 110.802)" fill="#e0e0e0"/>
          <rect id="Rectangle_96" data-name="Rectangle 96" width="3.426" height="3.534" transform="translate(136.582 110.802)" fill="#455a64"/>
          <rect id="Rectangle_97" data-name="Rectangle 97" width="3.426" height="3.534" transform="translate(136.582 118.543)" fill="#455a64"/>
          <rect id="Rectangle_98" data-name="Rectangle 98" width="3.426" height="3.534" transform="translate(136.582 126.278)" fill="#455a64"/>
          <rect id="Rectangle_99" data-name="Rectangle 99" width="3.426" height="3.534" transform="translate(136.582 134.013)" fill="#455a64"/>
          <rect id="Rectangle_100" data-name="Rectangle 100" width="3.426" height="3.534" transform="translate(136.582 141.748)" fill="#455a64"/>
          <rect id="Rectangle_101" data-name="Rectangle 101" width="3.426" height="3.534" transform="translate(136.582 149.482)" fill="#455a64"/>
          <rect id="Rectangle_102" data-name="Rectangle 102" width="3.426" height="3.534" transform="translate(136.582 157.217)" fill="#455a64"/>
          <rect id="Rectangle_103" data-name="Rectangle 103" width="3.426" height="3.534" transform="translate(136.582 164.952)" fill="#455a64"/>
          <rect id="Rectangle_104" data-name="Rectangle 104" width="3.426" height="3.534" transform="translate(136.582 172.687)" fill="#455a64"/>
          <rect id="Rectangle_105" data-name="Rectangle 105" width="5.508" height="3.534" transform="translate(170.346 228.075)" fill="#e0e0e0"/>
          <rect id="Rectangle_106" data-name="Rectangle 106" width="16.587" height="3.534" transform="translate(150.409 228.075)" fill="#ff725e"/>
          <rect id="Rectangle_107" data-name="Rectangle 107" width="3.426" height="3.534" transform="translate(136.582 227.682)" fill="#455a64"/>
          <rect id="Rectangle_108" data-name="Rectangle 108" width="3.426" height="3.534" transform="translate(136.582 180.422)" fill="#455a64"/>
          <rect id="Rectangle_109" data-name="Rectangle 109" width="3.426" height="3.534" transform="translate(136.582 188.157)" fill="#455a64"/>
          <rect id="Rectangle_110" data-name="Rectangle 110" width="3.426" height="3.534" transform="translate(136.582 195.892)" fill="#455a64"/>
          <rect id="Rectangle_111" data-name="Rectangle 111" width="3.426" height="3.534" transform="translate(136.582 203.627)" fill="#455a64"/>
          <rect id="Rectangle_112" data-name="Rectangle 112" width="3.426" height="3.534" transform="translate(136.582 211.368)" fill="#455a64"/>
          <rect id="Rectangle_113" data-name="Rectangle 113" width="16.802" height="3.534" transform="translate(150.301 219.503)" fill="#455a64"/>
          <rect id="Rectangle_114" data-name="Rectangle 114" width="38.015" height="3.534" transform="translate(170.346 219.503)" fill="#455a64"/>
          <rect id="Rectangle_115" data-name="Rectangle 115" width="3.426" height="3.534" transform="translate(136.582 219.503)" fill="#455a64"/>
          <rect id="Rectangle_116" data-name="Rectangle 116" width="12.335" height="3.534" transform="translate(219.998 118.276)" fill="#e0e0e0"/>
          <g id="Group_1" data-name="Group 1" opacity="0.3">
            <path id="Path_15" data-name="Path 15" d="M247.01,180.175h-8.427v68.453h100.4l-2.614-66.791Z"/>
          </g>
          <rect id="Rectangle_117" data-name="Rectangle 117" width="100.465" height="72.108" transform="translate(245.049 170.054)" fill="#e0e0e0"/>
          <path id="Path_16" data-name="Path 16" d="M345.819,242.479H244.732V169.737H345.819Zm-100.465-.635h99.831V170.371H245.366Z" fill="#263238"/>
          <rect id="Rectangle_118" data-name="Rectangle 118" width="16.244" height="3.426" transform="translate(264.123 177.757)" fill="#455a64"/>
          <rect id="Rectangle_119" data-name="Rectangle 119" width="8.122" height="3.426" transform="translate(264.123 193.113)" fill="#ff725e"/>
          <rect id="Rectangle_120" data-name="Rectangle 120" width="11.441" height="3.426" transform="translate(270.233 200.835)" fill="#455a64"/>
          <rect id="Rectangle_121" data-name="Rectangle 121" width="6.663" height="3.426" transform="translate(283.495 200.835)" fill="#455a64"/>
          <rect id="Rectangle_122" data-name="Rectangle 122" width="11.441" height="3.426" transform="translate(270.233 208.367)" fill="#455a64"/>
          <rect id="Rectangle_123" data-name="Rectangle 123" width="11.441" height="3.426" transform="translate(263.209 215.873)" fill="#ff725e"/>
          <rect id="Rectangle_124" data-name="Rectangle 124" width="5.343" height="3.426" transform="translate(269.301 223.38)" fill="#455a64"/>
          <rect id="Rectangle_125" data-name="Rectangle 125" width="8.674" height="3.426" transform="translate(269.301 231.026)" fill="#455a64"/>
          <rect id="Rectangle_126" data-name="Rectangle 126" width="14.569" height="3.426" transform="translate(276.756 223.38)" fill="#455a64"/>
          <rect id="Rectangle_127" data-name="Rectangle 127" width="14.569" height="3.426" transform="translate(279.967 231.032)" fill="#455a64"/>
          <rect id="Rectangle_128" data-name="Rectangle 128" width="17.234" height="3.426" transform="translate(312.411 231.032)" fill="#455a64"/>
          <rect id="Rectangle_129" data-name="Rectangle 129" width="12.056" height="3.426" transform="translate(296.934 231.032)" fill="#455a64"/>
          <rect id="Rectangle_130" data-name="Rectangle 130" width="19.099" height="3.426" transform="translate(293.324 223.38)" fill="#455a64"/>
          <rect id="Rectangle_131" data-name="Rectangle 131" width="10.635" height="3.426" transform="translate(314.53 223.38)" fill="#fff"/>
          <rect id="Rectangle_132" data-name="Rectangle 132" width="11.923" height="3.426" transform="translate(283.495 208.367)" fill="#455a64"/>
          <rect id="Rectangle_133" data-name="Rectangle 133" width="40.362" height="3.426" transform="translate(292.239 200.835)" fill="#455a64"/>
          <rect id="Rectangle_134" data-name="Rectangle 134" width="27.177" height="3.426" transform="translate(264.123 185.029)" fill="#455a64"/>
          <rect id="Rectangle_135" data-name="Rectangle 135" width="37.209" height="3.426" transform="translate(294.009 185.029)" fill="#455a64"/>
          <rect id="Rectangle_136" data-name="Rectangle 136" width="11.961" height="3.426" transform="translate(282.905 177.757)" fill="#fff"/>
          <rect id="Rectangle_137" data-name="Rectangle 137" width="3.319" height="3.426" transform="translate(254.865 177.757)" fill="#455a64"/>
          <rect id="Rectangle_138" data-name="Rectangle 138" width="3.319" height="3.426" transform="translate(254.865 185.257)" fill="#455a64"/>
          <rect id="Rectangle_139" data-name="Rectangle 139" width="3.319" height="3.426" transform="translate(254.865 192.764)" fill="#455a64"/>
          <rect id="Rectangle_140" data-name="Rectangle 140" width="3.319" height="3.426" transform="translate(254.865 200.264)" fill="#455a64"/>
          <rect id="Rectangle_141" data-name="Rectangle 141" width="3.319" height="3.426" transform="translate(254.865 207.764)" fill="#455a64"/>
          <rect id="Rectangle_142" data-name="Rectangle 142" width="3.319" height="3.426" transform="translate(254.865 215.264)" fill="#455a64"/>
          <rect id="Rectangle_143" data-name="Rectangle 143" width="3.319" height="3.426" transform="translate(254.865 222.771)" fill="#455a64"/>
          <rect id="Rectangle_144" data-name="Rectangle 144" width="3.319" height="3.426" transform="translate(254.865 230.271)" fill="#455a64"/>
          <g id="Group_2" data-name="Group 2" opacity="0.3">
            <path id="Path_17" data-name="Path 17" d="M190.9,268.742c1.269-6.345-2.855-25.324-2.855-25.324L157.2,247.34,155.929,268.6Z"/>
          </g>
          <path id="Path_18" data-name="Path 18" d="M151.653,243.418s1.358,25.235-4.3,33.916l38.421.945a166.025,166.025,0,0,0,2.3-34.861Z" fill="#ff725e"/>
          <path id="Path_19" data-name="Path 19" d="M187.948,248.3c0,.089-8,.165-17.862.165s-17.862-.076-17.862-.165,8-.165,17.862-.165S187.948,248.215,187.948,248.3Z" fill="#263238"/>
          <path id="Path_20" data-name="Path 20" d="M183.677,256.94c0,.089-6.4.165-14.277.165s-14.277-.076-14.277-.165,6.39-.165,14.277-.165S183.677,256.851,183.677,256.94Z" fill="#263238"/>
          <path id="Path_21" data-name="Path 21" d="M184.014,261.655c0,.089-6.39.165-14.277.165s-14.277-.076-14.277-.165,6.39-.165,14.271-.165S184.014,261.566,184.014,261.655Z" fill="#263238"/>
          <path id="Path_22" data-name="Path 22" d="M183.094,266.369c0,.089-6.4.165-14.277.165s-14.277-.076-14.277-.165,6.39-.165,14.277-.165S183.094,266.28,183.094,266.369Z" fill="#263238"/>
          <g id="Group_3" data-name="Group 3" opacity="0.3">
            <path id="Path_23" data-name="Path 23" d="M145.307,243.888s1.643,18.681,1.643,25.324h-4.734Z"/>
          </g>
          <path id="Path_24" data-name="Path 24" d="M133.956,243.888s1.358,25.242-4.3,33.916h12.653s3.636-13.795,3-33.916Z" fill="#e0e0e0"/>
          <path id="Path_25" data-name="Path 25" d="M310.824,134.14,332.1,109.685,310.678,94.126l16.809-9.892s26.365,16.022,26.016,25.641c-.311,8.757-33.548,30.908-33.548,30.908Z" fill="#ffbf9d"/>
          <path id="Path_26" data-name="Path 26" d="M294.136,189.724a30.832,30.832,0,1,1-38.4-44.417h0a30.832,30.832,0,0,1,38.4,44.417Zm-50.883-31.016a11.624,11.624,0,1,0,0-.032Z" fill="#ff725e"/>
          <g id="Group_4" data-name="Group 4" opacity="0.3">
            <path id="Path_27" data-name="Path 27" d="M294.136,189.724a30.832,30.832,0,1,1-38.4-44.417h0a30.832,30.832,0,0,1,38.4,44.417Zm-50.883-31.016a11.624,11.624,0,1,0,0-.032Z"/>
          </g>
          <path id="Path_28" data-name="Path 28" d="M292.886,188.341a30.832,30.832,0,1,1-38.4-44.417h0a30.832,30.832,0,0,1,38.4,44.417ZM242,157.325a28.751,28.751,0,1,0,13.325-11.51A28.751,28.751,0,0,0,242,157.325Z" fill="#ff725e"/>
          <path id="Path_29" data-name="Path 29" d="M337.735,131.652l1.206,1.9c1.085,1.675-.241,4.378-2.614,5.476l-40.248,24.645-3.756-5.5,39.233-27.469C334.093,128.771,336.339,129.495,337.735,131.652Z" fill="#ff725e"/>
          <path id="Path_30" data-name="Path 30" d="M267.822,146.672a2.634,2.634,0,0,1-.508,0c-.33,0-.819-.044-1.447,0a22.132,22.132,0,0,0-5.235.857,26.946,26.946,0,0,0-3.452,1.269,30.459,30.459,0,0,0-3.706,1.992,28.8,28.8,0,0,0-3.725,2.767,27.368,27.368,0,0,0-3.458,3.591,25.838,25.838,0,0,0-2.7,4.182,27.683,27.683,0,0,0-1.7,4.321,26.11,26.11,0,0,0-1.047,7.779,24.931,24.931,0,0,0,.635,5.267c.114.635.286,1.079.355,1.409a2.378,2.378,0,0,1,.114.489,3.659,3.659,0,0,1-.178-.47c-.089-.324-.279-.78-.419-1.4a23.475,23.475,0,0,1-.755-5.292,25.712,25.712,0,0,1,.99-7.868,26.912,26.912,0,0,1,1.707-4.385,25.445,25.445,0,0,1,2.728-4.245,27.581,27.581,0,0,1,3.5-3.63,27.923,27.923,0,0,1,3.807-2.792,28.716,28.716,0,0,1,3.756-1.98,27.532,27.532,0,0,1,3.5-1.218,20.977,20.977,0,0,1,5.279-.742,14.352,14.352,0,0,1,1.459.051A3.119,3.119,0,0,1,267.822,146.672Z" fill="#fff"/>
          <path id="Path_31" data-name="Path 31" d="M291.884,179.642c-.076,0,.495-1.409.895-3.775.044-.3.1-.635.14-.926s.057-.666.1-1.015c.076-.7.063-1.453.076-2.246a23.979,23.979,0,0,0-2.341-9.937c-.362-.7-.685-1.383-1.066-1.973-.184-.3-.349-.6-.533-.869s-.368-.52-.539-.768c-1.415-1.935-2.538-2.925-2.487-2.982a7.506,7.506,0,0,1,.78.7,8.377,8.377,0,0,1,.85.888A13.668,13.668,0,0,1,288.793,158c.184.241.368.495.565.761s.362.565.558.869a22.015,22.015,0,0,1,1.11,1.98,25.679,25.679,0,0,1,1.751,4.9,25.012,25.012,0,0,1,.635,5.165,15.41,15.41,0,0,1-.108,2.272c-.038.349-.057.7-.114,1.022s-.114.635-.165.933a15.818,15.818,0,0,1-.368,1.593,8.689,8.689,0,0,1-.368,1.174A6.161,6.161,0,0,1,291.884,179.642Z" fill="#fff"/>
          <path id="Path_32" data-name="Path 32" d="M272.848,157.8c.063.07-4.086,3.953-9.27,8.68s-9.429,8.509-9.518,8.439,4.086-3.953,9.27-8.674S272.759,157.731,272.848,157.8Z" fill="#fff"/>
          <path id="Path_33" data-name="Path 33" d="M280.741,162.808a2.336,2.336,0,0,1-.3.279l-.888.761-3.287,2.773c-2.779,2.335-6.612,5.571-10.787,9.194s-7.951,6.942-10.66,9.353l-3.223,2.855-.882.768a1.681,1.681,0,0,1-.324.247,2.365,2.365,0,0,1,.279-.3l.844-.812c.736-.7,1.808-1.7,3.173-2.932,2.678-2.456,6.409-5.806,10.6-9.435s8.052-6.828,10.876-9.118c1.409-1.148,2.538-2.069,3.357-2.69l.926-.717A1.53,1.53,0,0,1,280.741,162.808Z" fill="#fff"/>
          <g id="Group_5" data-name="Group 5" opacity="0.3">
            <path id="Path_34" data-name="Path 34" d="M242.181,186.723,284.51,150.2s4.182,3.173,5.958,6.066l-43.319,37.266A22.126,22.126,0,0,1,242.181,186.723Z" fill="#fff"/>
          </g>
          <g id="Group_6" data-name="Group 6" opacity="0.3">
            <path id="Path_35" data-name="Path 35" d="M251.788,196.958l41.244-35.927s.2-.336.768,2.246l-39.988,34.8a5.146,5.146,0,0,1-2.024-1.123Z" fill="#fff"/>
          </g>
          <path id="Path_36" data-name="Path 36" d="M310.824,134.14s-12.411,13.674-12.691,14.188-3.623,8.408-2.8,10.007,7.043,7.215,7.043,7.215,2.221-.958.121-4.715l-2.1-3.75,1.129-3.807s1.675,4.8,2.646,5.857,4.816,2.855,5.781,1.9a3.807,3.807,0,0,0,1.11-2.05s2.633,2.094,4.492-1.237a5.276,5.276,0,0,0,3.344-2c1-1.637.9-4.734.9-4.734a1.485,1.485,0,0,0-2.272-.514,6.821,6.821,0,0,0-2.221,2.932l-1.085-1.447a20.943,20.943,0,0,1,1.656-5.654c.755-1.447,5.628-4.6,6.206-7.113.489-2.126-3.763-3.534-5.946-3.414h0a3.351,3.351,0,0,0-.958.2Z" fill="#ffbf9d"/>
          <path id="Path_37" data-name="Path 37" d="M309.746,151.6a1.226,1.226,0,0,0,0,.374,5.767,5.767,0,0,0,.171.99,6.5,6.5,0,0,0,4.442,4.613,5.572,5.572,0,0,0,.99.2,1.168,1.168,0,0,0,.368,0c0-.038-.527-.076-1.32-.343a6.891,6.891,0,0,1-2.741-1.72,6.98,6.98,0,0,1-1.618-2.8C309.8,152.128,309.777,151.6,309.746,151.6Z" fill="#ff9a6c"/>
          <path id="Path_38" data-name="Path 38" d="M305.57,151.189a1.857,1.857,0,0,0,0,.393,3.653,3.653,0,0,0,.051.463,5.288,5.288,0,0,0,.1.635,9.982,9.982,0,0,0,.476,1.529,9.518,9.518,0,0,0,2.2,3.23,8.458,8.458,0,0,0,1.269,1.009c.184.133.368.228.52.324a3.171,3.171,0,0,0,.412.209,1.688,1.688,0,0,0,.368.152c0-.032-.495-.266-1.225-.793a9.412,9.412,0,0,1-1.206-1.022,10.549,10.549,0,0,1-1.231-1.485,12.911,12.911,0,0,1-1.053-1.764,8.254,8.254,0,0,1-.381-1.421C305.64,151.748,305.608,151.183,305.57,151.189Z" fill="#ff9a6c"/>
          <path id="Path_39" data-name="Path 39" d="M300.818,150.2a1.49,1.49,0,0,0-.152.514,2.862,2.862,0,0,0,.152,1.269,2.4,2.4,0,0,0,.7,1.091c.241.228.425.324.438.3a4.5,4.5,0,0,1-.964-1.459,4.581,4.581,0,0,1-.171-1.72Z" fill="#ff9a6c"/>
          <path id="Path_40" data-name="Path 40" d="M343.623,108.232c0,.051-.679-.406-1.859-.831a9.556,9.556,0,0,0-4.791-.451,8.249,8.249,0,0,0-4.258,2.183c-.914.857-1.364,1.5-1.415,1.472a1.675,1.675,0,0,1,.285-.482,8.95,8.95,0,0,1,.971-1.155,7.932,7.932,0,0,1,4.378-2.367,9.106,9.106,0,0,1,4.93.565,7.685,7.685,0,0,1,1.345.7C343.484,108.086,343.636,108.213,343.623,108.232Z" fill="#ff9a6c"/>
          <path id="Path_41" data-name="Path 41" d="M279.276,51.689a71.443,71.443,0,0,0-.723-12.437,25.531,25.531,0,0,0-4.727-11.422c-.393-.495-3.395-3.687-3.972-3.439-.412.184,1.821,3.344,1.726,3.807a21.392,21.392,0,0,0,1.548,12.608A56.3,56.3,0,0,0,279.276,51.7" fill="#263238"/>
          <path id="Path_42" data-name="Path 42" d="M274.751,36.466c-2.887-10.026-11.123-16.7-21.066-13.535l-.9.343a18.655,18.655,0,0,0-11.212,22.672c2.538,8.674,5.482,18.224,7.265,22.716,3.706,9.3,13.611,7.17,13.611,7.17l6.18,14.213L288.3,79.963Z" fill="#ffbf9d"/>
          <path id="Path_43" data-name="Path 43" d="M262.492,75.9a24.2,24.2,0,0,0,10.787-8.249s.279,8.737-9.372,11.479Z" fill="#ff9a6c"/>
          <path id="Path_44" data-name="Path 44" d="M248.234,54.373a1.421,1.421,0,0,0,1.8.831,1.364,1.364,0,0,0,.914-1.726,1.428,1.428,0,0,0-1.8-.812,1.364,1.364,0,0,0-.914,1.707Z" fill="#263238"/>
          <path id="Path_45" data-name="Path 45" d="M245.081,49.055c.235.114.958-1.022,2.4-1.574s2.767-.228,2.849-.463c.051-.108-.241-.362-.825-.52a3.915,3.915,0,0,0-2.367.165,3.744,3.744,0,0,0-1.821,1.466C245,48.637,244.973,49.011,245.081,49.055Z" fill="#263238"/>
          <path id="Path_46" data-name="Path 46" d="M260.512,50.064a1.428,1.428,0,0,0,1.8.857,1.364,1.364,0,0,0,.914-1.732,1.428,1.428,0,0,0-1.8-.857,1.371,1.371,0,0,0-.914,1.732Z" fill="#263238"/>
          <path id="Path_47" data-name="Path 47" d="M259.37,44.239c.235.114.958-1.028,2.4-1.574s2.76-.228,2.849-.47c.051-.1-.241-.355-.825-.514a3.96,3.96,0,0,0-2.367.159,3.807,3.807,0,0,0-1.827,1.472C259.294,43.821,259.262,44.195,259.37,44.239Z" fill="#263238"/>
          <path id="Path_48" data-name="Path 48" d="M258.457,57.254a10.036,10.036,0,0,0-2.494.47c-.381.108-.755.165-.914-.063a1.935,1.935,0,0,1-.171-1.18c0-1.015,0-2.088,0-3.2,0-4.556-.184-8.249-.368-8.249s-.317,3.7-.3,8.249c0,1.123,0,2.189.038,3.211a2.316,2.316,0,0,0,.362,1.51,1,1,0,0,0,.812.3,2.76,2.76,0,0,0,.635-.152A10.122,10.122,0,0,0,258.457,57.254Z" fill="#263238"/>
          <path id="Path_49" data-name="Path 49" d="M263.063,56.625c-.241.076.355,1.631-.552,3.249s-2.633,2.088-2.538,2.31c0,.108.489.159,1.193-.089a4.175,4.175,0,0,0,2.164-1.815,3.636,3.636,0,0,0,.362-2.69C263.488,56.892,263.165,56.575,263.063,56.625Z" fill="#263238"/>
          <path id="Path_50" data-name="Path 50" d="M257.213,38.383c.292.336,1.656-.4,3.42-.844s3.3-.508,3.388-.939c.038-.209-.343-.482-1.034-.635a5.952,5.952,0,0,0-2.754.082,5.781,5.781,0,0,0-2.43,1.269C257.276,37.793,257.086,38.224,257.213,38.383Z" fill="#263238"/>
          <path id="Path_51" data-name="Path 51" d="M243.843,44.055c.381.228,1.237-.489,2.424-.958s2.278-.635,2.379-1.06c.038-.2-.247-.47-.806-.635a3.807,3.807,0,0,0-3.864,1.624C243.659,43.554,243.659,43.941,243.843,44.055Z" fill="#263238"/>
          <path id="Path_52" data-name="Path 52" d="M276.655,43.681c.133-.133,5.711-4.366,7.938,2.1s-4.689,7.392-4.765,7.208S276.655,43.681,276.655,43.681Z" fill="#ffbf9d"/>
          <path id="Path_53" data-name="Path 53" d="M280.951,49.855a2.242,2.242,0,0,0,.362.057,1.187,1.187,0,0,0,.85-.273,2.964,2.964,0,0,0,.419-2.951,4.041,4.041,0,0,0-.85-1.5,1.377,1.377,0,0,0-1.148-.565.635.635,0,0,0-.558.539c0,.209.063.324.032.349s-.178-.063-.216-.349a.724.724,0,0,1,.114-.495.9.9,0,0,1,.565-.381,1.669,1.669,0,0,1,1.523.6,3.947,3.947,0,0,1,1.015,1.669,3.09,3.09,0,0,1-.673,3.363,1.269,1.269,0,0,1-1.085.184C281.014,50.007,280.932,49.874,280.951,49.855Z" fill="#ff9a6c"/>
          <path id="Path_54" data-name="Path 54" d="M242.168,33.782c-1.269-.222.755-4.689,2.938-6.726,3.3-3.09,8.883-6.187,12.83-6.383,4.74-.235,9.061.7,12.564,3.909a26.84,26.84,0,0,1,7.265,12.056,8.154,8.154,0,0,1,.425,4.27c-.425,1.739-1.853,3.23-1.11,5.184a2.862,2.862,0,0,1,0,2.208c-.761,1.662-2.614.964-3.68,0-2.284-2.056-3.471-5.038-4.575-7.906a20.07,20.07,0,0,1-1.675-6.307c-.044-1.187.121-2.379,0-3.566a4.125,4.125,0,0,0-1.555-3.084,4.3,4.3,0,0,0-.711-.355,7.132,7.132,0,0,0-7.138.99c-3.217,2.538-8.8,6.561-10.85,5.876a10.68,10.68,0,0,1-3.9-1.967Z" fill="#263238"/>
          <path id="Path_55" data-name="Path 55" d="M232.384,93.961s-.926-2.614,2.215-6.13,28.034-10.419,28.034-10.419,9.048,10.248,16.878,3.249c5.711-5.076,5.9-10.152,5.9-10.152h22.526l2.811,23.141-8.979.051Z" fill="#ff725e"/>
          <path id="Path_56" data-name="Path 56" d="M303.845,70.5a20.462,20.462,0,0,1,11.244,1.269c9.017,4.093,24.683,17.132,24.683,17.132l-19.036,15.641-13.2-10.825Z" fill="#ff725e"/>
          <path id="Path_57" data-name="Path 57" d="M312.03,97.457a1.115,1.115,0,0,1-.247-.127,7.169,7.169,0,0,1-.635-.431,19.248,19.248,0,0,1-2.24-1.815,20.828,20.828,0,0,1-2.824-3.223,11.783,11.783,0,0,1-2.1-4.81,15.038,15.038,0,0,1,1.11-9.353,7.037,7.037,0,0,1,1.853-2.221,5.623,5.623,0,0,1,.666-.419c.152-.089.241-.133.247-.121s-.3.228-.838.635A7.506,7.506,0,0,0,305.3,77.8a15.153,15.153,0,0,0-.99,9.182,11.771,11.771,0,0,0,2.024,4.7,21.712,21.712,0,0,0,2.735,3.23,26.023,26.023,0,0,0,2.157,1.9,9.717,9.717,0,0,1,.806.647Z" fill="#263238"/>
          <path id="Path_58" data-name="Path 58" d="M307.518,93.663c0,.089-15.508.228-34.639.3s-34.645.063-34.645-.032,15.508-.222,34.645-.3S307.518,93.568,307.518,93.663Z" fill="#263238"/>
          <path id="Path_59" data-name="Path 59" d="M224.268,90.5c.044.1.082.19.121.286a5.242,5.242,0,0,1,.279,1.4,5.968,5.968,0,0,0,.032.673,2.785,2.785,0,0,0,.184.393,6.625,6.625,0,0,1,.247,2.779,5.3,5.3,0,0,0,.514,2.97,1.955,1.955,0,0,0,2.614.806,1.333,1.333,0,0,0,1,1.459,1.9,1.9,0,0,0,1.783-.552A3.572,3.572,0,0,0,231.927,99a1.478,1.478,0,0,0,1.472,1.428,2.272,2.272,0,0,0,1.866-1.142,5.279,5.279,0,0,0,.635-2.176,26.6,26.6,0,0,1,.463-2.919s.958.159,1.4.2h.127A5.971,5.971,0,0,0,238.8,92.8c.635-1.269,1.079-2.056,1.542-3.173.355-.85.577-1.707.051-2.259-1.269-1.339-3.756,1.383-3.756,1.383-.355-.952-3.242-1.1-3.807.159-.228-.7-.14-1.1-.7-1.567a2.335,2.335,0,0,0-2.043-.514,1.656,1.656,0,0,0-1.269,1.605,2.817,2.817,0,0,0-2.932-1.225,2.773,2.773,0,0,0-1.631,1.129,2.83,2.83,0,0,0-.412.914,1.123,1.123,0,0,0-.07.381.564.564,0,0,0,.057.165A4.054,4.054,0,0,1,224.268,90.5Z" fill="#ffbf9d"/>
          <path id="Path_60" data-name="Path 60" d="M221.216,88.65a2.176,2.176,0,0,0-1.732.577,3.541,3.541,0,0,0-.539,2.4c.869.165,1.32.2,2.2.368a1.22,1.22,0,0,1,.489.1c.4.286.336,1.269.495,1.713a1.681,1.681,0,0,0,2.119.907,2.259,2.259,0,0,0,1.364-2.005,3.484,3.484,0,0,0-.888-2.348,4.86,4.86,0,0,0-3.5-1.707Z" fill="#ffbf9d"/>
          <path id="Path_61" data-name="Path 61" d="M228.849,88.2a28.579,28.579,0,0,1,0,5.831,29.541,29.541,0,0,1-.59,5.8,29.161,29.161,0,0,1,0-5.831A29.131,29.131,0,0,1,228.849,88.2Z" fill="#ff9a6c"/>
          <path id="Path_62" data-name="Path 62" d="M232.872,88.72a16.435,16.435,0,0,1,.114,5.292,16.755,16.755,0,0,1-1.015,5.2,47.51,47.51,0,0,1,.425-5.248C232.638,91.08,232.688,88.726,232.872,88.72Z" fill="#ff9a6c"/>
          <path id="Path_63" data-name="Path 63" d="M236.781,89.259c.165,0,.235,1.973-.076,4.372a17.613,17.613,0,0,1-.825,4.283,16.322,16.322,0,0,1,.241-4.359A23.4,23.4,0,0,1,236.781,89.259Z" fill="#ff9a6c"/>
          <path id="Path_64" data-name="Path 64" d="M222.472,89.056c0-.07.419-.165,1.022.114a3.255,3.255,0,0,1,1.605,1.872,6.567,6.567,0,0,1,.4,2.4c-.07.723-.6.933-.635.838s.241-.317.19-.85a11.519,11.519,0,0,0-.533-2.183,3.566,3.566,0,0,0-1.269-1.72C222.834,89.215,222.466,89.145,222.472,89.056Z" fill="#ff9a6c"/>
        </g>
        <g id="freepik--Wrench--inject-76">
          <path id="Path_65" data-name="Path 65" d="M318.635,290.107a18.351,18.351,0,0,0,8.147-18.135l7.2-4.721,1.022-.635,57.025-37.374A18.344,18.344,0,0,0,420.217,214.1l-3.331-.577-3.63,5.076-8.344-1.758-4.657-7.138,1.758-8.35,6.935-4.524-4.7-1.231c-4.975-1.466-7.735-.273-12.418,2.786a18.344,18.344,0,0,0-8.116,18.1l-57.977,38-1.8,1.168-5.5,3.6a18.344,18.344,0,0,0-19.842.133c-4.664,3.039-10.952,9.366-11.631,14.486l3.312.546,6.935-4.524,8.35,1.758,4.657,7.138-1.758,8.35-7.468,2.107.527,2.418a18.319,18.319,0,0,0,17.1-1.555Z" fill="#e0e0e0"/>
          <g id="Group_7" data-name="Group 7" opacity="0.3">
            <path id="Path_66" data-name="Path 66" d="M318.635,290.107a18.351,18.351,0,0,0,8.147-18.135l7.2-4.721,1.022-.635,57.025-37.374A18.344,18.344,0,0,0,420.217,214.1l-3.331-.577-3.63,5.076-8.344-1.758-4.657-7.138,1.758-8.35,6.935-4.524-4.7-1.231c-4.975-1.466-7.735-.273-12.418,2.786a18.344,18.344,0,0,0-8.116,18.1l-57.977,38-1.8,1.168-5.5,3.6a18.344,18.344,0,0,0-19.842.133c-4.664,3.039-10.952,9.366-11.631,14.486l3.312.546,6.935-4.524,8.35,1.758,4.657,7.138-1.758,8.35-7.468,2.107.527,2.418a18.319,18.319,0,0,0,17.1-1.555Z"/>
          </g>
          <path id="Path_67" data-name="Path 67" d="M315.323,289.561a18.338,18.338,0,0,0,8.116-18.135l7.208-4.727,1.015-.635,57.025-37.38a18.338,18.338,0,0,0,28.2-15.165l-6.98,4.531-8.344-1.758-4.657-7.145,1.758-8.344,6.942-4.531a18.344,18.344,0,0,0-25.235,19.67l-57.977,38.008-1.77,1.129-5.5,3.6a18.344,18.344,0,0,0-28.16,15.165l6.942-4.531,8.344,1.758,4.657,7.145-1.758,8.344-6.923,4.55a18.319,18.319,0,0,0,17.094-1.555Z" fill="#e0e0e0"/>
          <path id="Path_68" data-name="Path 68" d="M315.323,289.561s-.33.216-.984.635a20.386,20.386,0,0,1-3.128,1.421,18.37,18.37,0,0,1-13.027-.431l-.114-.044.108-.07,6.935-4.537-.038.044c.539-2.57,1.123-5.368,1.745-8.344v.07c-1.453-2.234-3.02-4.632-4.664-7.138l.063.038-8.35-1.745h.082L287.01,274l-.178.114V273.9a18.53,18.53,0,0,1,18.376-18.186,18.6,18.6,0,0,1,9.962,2.868h-.146l65.287-42.78-.07.152a18.5,18.5,0,0,1,25.445-19.816l.273.121-.247.159-6.942,4.531.07-.1q-.882,4.207-1.758,8.344v-.114l4.657,7.138-.1-.063,8.344,1.758h-.114l6.942-4.524.241-.152v.279a18.587,18.587,0,0,1-19.67,18.135A18.852,18.852,0,0,1,388.6,228.8h.146l-65.287,42.7v-.07a18.763,18.763,0,0,1-.876,8.947,18.445,18.445,0,0,1-3.274,5.711,18.959,18.959,0,0,1-2.912,2.754c-.742.514-1.123.768-1.123.768l1.1-.8a19.6,19.6,0,0,0,2.887-2.767,18.4,18.4,0,0,0,4.061-14.594v-.044h.038L388.573,228.6l.076-.044.076.044a18.471,18.471,0,0,0,8.649,2.8,18,18,0,0,0,9.207-1.866,18.179,18.179,0,0,0,10.108-15.965l.228.127-6.942,4.531-.051.032h-.063l-8.344-1.751h-.063v-.051l-4.664-7.145-.032-.051v-.063q.869-4.143,1.758-8.344v-.063l.051-.038,6.942-4.524v.273a18.128,18.128,0,0,0-24.956,19.436v.1l-.082.057L315.2,258.818l-.076.044-.076-.044a18.222,18.222,0,0,0-27.989,15.051l-.178-.1,6.98-4.524h.044l8.344,1.764h.038v.038l4.651,7.145v.07c-.635,2.97-1.225,5.768-1.77,8.344v.032h0l-6.98,4.518v-.114a18.4,18.4,0,0,0,12.951.489,20.4,20.4,0,0,0,3.135-1.39Z" fill="#263238"/>
          <path id="Path_69" data-name="Path 69" d="M386.118,226.134a3.7,3.7,0,0,1-.412-.267,11,11,0,0,1-1.022-.882,14.759,14.759,0,0,1-4.175-7.71,9.459,9.459,0,0,1-.178-1.332,1.625,1.625,0,0,1,0-.489c.051,0,.133.685.393,1.777a17.131,17.131,0,0,0,1.561,4.067,17.3,17.3,0,0,0,2.538,3.534C385.61,225.645,386.149,226.089,386.118,226.134Z" fill="#263238"/>
        </g>
        <g id="freepik--Settings--inject-76">
          <rect id="Rectangle_145" data-name="Rectangle 145" width="58.066" height="58.066" rx="6.263" transform="translate(80.972 55.204)" fill="#ff725e"/>
          <g id="Group_8" data-name="Group 8" opacity="0.3">
            <rect id="Rectangle_146" data-name="Rectangle 146" width="58.066" height="58.066" rx="6.263" transform="translate(80.972 55.204)"/>
          </g>
          <rect id="Rectangle_147" data-name="Rectangle 147" width="58.066" height="58.066" rx="6.263" transform="translate(72.457 55.204)" fill="#ff725e"/>
          <path id="Path_70" data-name="Path 70" d="M93.314,71.3a15.451,15.451,0,0,1,3.839-1.669l.787-3.807,6.421-.114.926,3.769a15.616,15.616,0,0,1,3.9,1.536l3.242-2.132,4.626,4.442-2.011,3.319a15.775,15.775,0,0,1,1.662,3.839l3.807.793.114,6.421-3.769.926a15.712,15.712,0,0,1-1.536,3.9l2.132,3.242-4.442,4.619-3.319-2.011a15.552,15.552,0,0,1-3.839,1.669l-.793,3.807-6.421.114-.92-3.75a15.958,15.958,0,0,1-3.9-1.536L90.579,100.8,85.96,96.353l2.011-3.312A15.6,15.6,0,0,1,86.3,89.2L82.5,88.409l-.114-6.421,3.769-.926a15.863,15.863,0,0,1,1.536-3.9L85.56,73.923,90,69.3l3.319,2.018Zm3.42,8.553a6.891,6.891,0,1,0,9.74-.171,6.891,6.891,0,0,0-9.74.171Z" fill="#fff"/>
          <g id="Group_9" data-name="Group 9" opacity="0.3">
            <path id="Path_71" data-name="Path 71" d="M117.477,55.2,72.457,91.163v7L126.138,55.2Z" fill="#fff"/>
          </g>
          <g id="Group_10" data-name="Group 10" opacity="0.3">
            <path id="Path_72" data-name="Path 72" d="M72.514,106.322l58.009-45V73.954L78.574,113.3h0a6.079,6.079,0,0,1-6.072-6.123Z" fill="#fff"/>
          </g>
        </g>
      </g>
    </g>
    <text id="HealthyPC" transform="translate(420 -56)" fill="#fff" stroke="#3b3a3a" stroke-width="1" font-size="96" font-family="HelveticaNeue-Bold, Helvetica Neue" font-weight="700"><tspan x="0" y="94">HealthyPC</tspan></text>
  </g>
</svg>
